<?xml version="1.0" encoding="iso-8859-1"?>
<!-- Generator: Adobe Illustrator 17.1.0, SVG Export Plug-In . SVG Version: 6.00 Build 0)  -->
<!DOCTYPE svg PUBLIC "-//W3C//DTD SVG 1.1//EN" "http://www.w3.org/Graphics/SVG/1.1/DTD/svg11.dtd">
<svg version="1.1" id="Capa_1" xmlns="http://www.w3.org/2000/svg" xmlns:xlink="http://www.w3.org/1999/xlink" x="0px" y="0px"
	 viewBox="0 0 427.056 427.056" style="enable-background:new 0 0 427.056 427.056;" xml:space="preserve">
<g>
	<path d="M196.67,199.099V42.43c0-11.028-8.972-20-20-20H20c-11.028,0-20,8.972-20,20v156.669c0,11.028,8.972,20,20,20h156.67
		C187.698,219.099,196.67,210.128,196.67,199.099z M43.674,196.044c-11.369,0-20.618-9.249-20.618-20.617
		c0-11.369,9.249-20.618,20.618-20.618c11.368,0,20.617,9.249,20.617,20.618C64.291,186.795,55.042,196.044,43.674,196.044z
		 M43.674,86.721c-11.369,0-20.618-9.249-20.618-20.618c0-11.368,9.249-20.617,20.618-20.617c11.368,0,20.617,9.249,20.617,20.617
		C64.291,77.472,55.042,86.721,43.674,86.721z M99.705,139.835c-11.368,0-20.617-9.249-20.617-20.617S88.337,98.6,99.705,98.6
		c11.369,0,20.618,9.249,20.618,20.617S111.074,139.835,99.705,139.835z M152.996,196.044c-11.368,0-20.617-9.249-20.617-20.617
		c0-11.369,9.249-20.618,20.617-20.618s20.617,9.249,20.617,20.618C173.613,186.795,164.364,196.044,152.996,196.044z
		 M152.996,86.721c-11.368,0-20.617-9.249-20.617-20.618c0-11.368,9.249-20.617,20.617-20.617s20.617,9.249,20.617,20.617
		C173.613,77.472,164.364,86.721,152.996,86.721z"/>
	<path d="M426.504,246.651c-1.236-5.209-4.414-9.617-8.948-12.411l-133.371-82.201c-3.144-1.938-6.759-2.961-10.453-2.961
		c-7.022,0-13.402,3.549-17.067,9.494l-82.201,133.372c-5.785,9.388-2.854,21.733,6.533,27.52l133.372,82.201
		c3.143,1.938,6.758,2.961,10.452,2.961c7.023,0,13.403-3.549,17.067-9.494l82.201-133.371
		C426.883,257.226,427.741,251.86,426.504,246.651z M261.362,206.401c-1.271-5.358-0.381-10.892,2.51-15.58
		c3.782-6.138,10.35-9.802,17.566-9.802c3.811,0,7.546,1.061,10.802,3.067c9.678,5.965,12.699,18.691,6.734,28.369
		c-3.783,6.139-10.351,9.803-17.567,9.803c-3.811,0-7.546-1.061-10.802-3.067C265.917,216.301,262.635,211.759,261.362,206.401z
		 M281.194,281.015c-1.272-5.358-0.381-10.892,2.508-15.579c3.784-6.138,10.351-9.802,17.567-9.802
		c3.811,0,7.546,1.061,10.803,3.067c4.688,2.89,7.971,7.432,9.242,12.79c1.272,5.358,0.381,10.892-2.508,15.579
		c-3.783,6.138-10.35,9.802-17.566,9.802c-3.811,0-7.546-1.061-10.803-3.067C285.749,290.916,282.467,286.374,281.194,281.015z
		 M334.682,362.882c-3.783,6.139-10.351,9.803-17.567,9.803c-3.811,0-7.546-1.061-10.802-3.067c-4.688-2.89-7.971-7.432-9.243-12.79
		c-1.272-5.359-0.381-10.892,2.508-15.58c3.783-6.138,10.351-9.802,17.567-9.802c3.811,0,7.546,1.061,10.802,3.067
		C337.625,340.477,340.646,353.204,334.682,362.882z"/>
</g>
<g>
</g>
<g>
</g>
<g>
</g>
<g>
</g>
<g>
</g>
<g>
</g>
<g>
</g>
<g>
</g>
<g>
</g>
<g>
</g>
<g>
</g>
<g>
</g>
<g>
</g>
<g>
</g>
<g>
</g>
</svg>
