<?xml version="1.0" encoding="iso-8859-1"?>
<!-- Generator: Adobe Illustrator 19.0.0, SVG Export Plug-In . SVG Version: 6.00 Build 0)  -->
<svg version="1.1" id="Capa_1" xmlns="http://www.w3.org/2000/svg" xmlns:xlink="http://www.w3.org/1999/xlink" x="0px" y="0px"
	 viewBox="0 0 512 512" style="enable-background:new 0 0 512 512;" xml:space="preserve">
<g>
	<g>
		<path d="M115.999,292.002c-16.542,0-30,13.458-30,30s13.458,30,30,30s30-13.458,30-30S132.541,292.002,115.999,292.002z
			 M115.999,332.001c-5.514,0-10-4.486-10-10s4.486-10,10-10s10,4.486,10,10S121.513,332.001,115.999,332.001z"/>
	</g>
</g>
<g>
	<g>
		<path d="M115.999,412.001c-16.542,0-30,13.458-30,30c0,16.542,13.458,30,30,30s30-13.458,30-30
			C145.999,425.459,132.541,412.001,115.999,412.001z M115.999,452c-5.514,0-10-4.486-10-10c0-5.514,4.486-10,10-10s10,4.486,10,10
			C125.999,447.514,121.513,452,115.999,452z"/>
	</g>
</g>
<g>
	<g>
		<path d="M235.998,292.002c-16.542,0-30,13.458-30,30s13.458,30,30,30c16.542,0,30-13.458,30-30S252.54,292.002,235.998,292.002z
			 M235.998,332.001c-5.514,0-10-4.486-10-10s4.486-10,10-10c5.514,0,10,4.486,10,10S241.512,332.001,235.998,332.001z"/>
	</g>
</g>
<g>
	<g>
		<path d="M477.207,150.212L335.788,8.794c-11.721-11.723-30.696-11.727-42.422-0.001L151.952,150.208
			c-11.73,11.714-11.746,30.7-0.005,42.425l59.363,59.37H75.999c-16.542,0-30,13.458-30,30V482c0,16.542,13.458,30,30,30h199.998
			c16.542,0,30-13.458,30-30V341.602c10.251,3.046,21.737,0.514,29.791-7.55l141.418-141.419
			C488.929,180.912,488.933,161.938,477.207,150.212z M285.998,482c0,5.514-4.486,10-10,10H75.999c-5.514,0-10-4.486-10-10V282.002
			c0-5.514,4.486-10,10-10h159.446c0.002,0,0.003,0,0.005,0h40.548c5.514,0,10,4.486,10,10V482z M463.064,178.49L321.642,319.915
			c-3.897,3.902-10.21,3.923-14.141-0.013l-1.504-1.5v-36.401c0-16.542-13.458-30-30-30H239.59l-73.505-73.515
			c-3.907-3.903-3.915-10.219,0.005-14.133L307.51,22.935c3.904-3.904,10.228-3.909,14.137,0.001l141.42,141.419
			C466.97,168.259,466.975,174.583,463.064,178.49z"/>
	</g>
</g>
<g>
	<g>
		<path d="M250.94,150.212c-11.726-11.724-30.707-11.727-42.432,0c-11.722,11.72-11.728,30.696-0.001,42.421
			c11.725,11.727,30.706,11.726,42.433,0.001C262.635,180.937,262.635,161.908,250.94,150.212z M236.797,178.49
			c-3.908,3.908-10.238,3.91-14.148,0c-3.905-3.905-3.909-10.227,0.001-14.138c3.909-3.909,10.239-3.907,14.147,0.001
			C240.694,168.252,240.694,174.594,236.797,178.49z"/>
	</g>
</g>
<g>
	<g>
		<path d="M335.788,150.213c-11.723-11.725-30.696-11.728-42.421-0.001c-11.725,11.723-11.728,30.696-0.001,42.421
			c11.723,11.725,30.696,11.728,42.421,0.001c0,0,0,0,0.001-0.001C347.513,180.909,347.513,161.936,335.788,150.213z
			 M321.647,178.49c-3.908,3.908-10.228,3.91-14.139,0c-3.907-3.907-3.909-10.227,0.001-14.138
			c3.907-3.907,10.227-3.909,14.138,0.001C325.554,168.262,325.556,174.583,321.647,178.49z"/>
	</g>
</g>
<g>
	<g>
		<path d="M420.639,150.212c-11.727-11.724-30.697-11.726-42.423,0c-11.695,11.696-11.695,30.726,0,42.421
			c11.725,11.727,30.696,11.726,42.423,0.001C432.334,180.937,432.334,161.908,420.639,150.212z M406.496,178.49
			c-3.908,3.908-10.229,3.91-14.138,0c-3.897-3.897-3.897-10.239,0-14.138c3.909-3.909,10.229-3.907,14.138,0.001
			C410.393,168.252,410.393,174.594,406.496,178.49z"/>
	</g>
</g>
<g>
	<g>
		<path d="M235.998,412.001c-16.542,0-30,13.458-30,30c0,16.542,13.458,30,30,30c16.542,0,30-13.458,30-30
			C265.998,425.459,252.54,412.001,235.998,412.001z M235.998,452c-5.514,0-10-4.486-10-10c0-5.514,4.486-10,10-10
			c5.514,0,10,4.486,10,10C245.998,447.514,241.512,452,235.998,452z"/>
	</g>
</g>
<g>
	<g>
		<path d="M435.997,326.001c-5.522,0-10,4.478-10,10c0,49.626-40.374,89.999-89.999,89.999c-5.522,0-10,4.478-10,10
			c0,5.522,4.478,10,10,10c60.654,0,109.999-49.346,109.999-109.999C445.997,330.478,441.519,326.001,435.997,326.001z"/>
	</g>
</g>
<g>
	<g>
		<path d="M395.997,326.001c-5.522,0-10,4.478-10,10c0,27.57-22.43,50-50,50c-5.522,0-10,4.478-10,10c0,5.522,4.478,10,10,10
			c38.598,0,69.999-31.402,69.999-69.999C405.997,330.479,401.519,326.001,395.997,326.001z"/>
	</g>
</g>
<g>
	<g>
		<path d="M135.999,40.004C75.345,40.004,26,89.349,26,150.003c0,5.522,4.478,10,10,10c5.522,0,10-4.478,10-10
			c0-49.626,40.374-89.999,89.999-89.999c5.522,0,10-4.478,10-10S141.521,40.004,135.999,40.004z"/>
	</g>
</g>
<g>
	<g>
		<path d="M135.999,80.003c-38.598,0-69.999,31.402-69.999,69.999c0,5.522,4.478,10,10,10s10-4.478,10-10c0-27.57,22.43-50,50-50
			c5.522,0,10-4.478,10-10S141.521,80.003,135.999,80.003z"/>
	</g>
</g>
<g>
</g>
<g>
</g>
<g>
</g>
<g>
</g>
<g>
</g>
<g>
</g>
<g>
</g>
<g>
</g>
<g>
</g>
<g>
</g>
<g>
</g>
<g>
</g>
<g>
</g>
<g>
</g>
<g>
</g>
</svg>
